<svg class="svg-icon" style="width: 1em; height: 1em;vertical-align: middle;fill: currentColor;overflow: hidden;" viewBox="0 0 1024 1024" version="1.1" xmlns="http://www.w3.org/2000/svg"><path d="M512 512m-512 0a512 512 0 1 0 1024 0 512 512 0 1 0-1024 0Z" fill="#E9F4FF" /><path d="M153.6 691.2h716.8v51.2H153.6zM486.4 307.2h51.2v358.4h-51.2zM665.6 307.2h51.2v358.4h-51.2z" fill="#040405" /><path d="M153.6 307.2h51.2v358.4H153.6z" fill="#2394FB" /><path d="M153.6 307.2h204.8v51.2H153.6zM153.6 460.8h204.8v51.2H153.6z" fill="#2394FB" /><path d="M384 307.2h256v51.2H384zM665.6 307.2h153.6v51.2h-153.6zM665.6 460.8h153.6v51.2h-153.6zM819.2 358.4h51.2v102.4h-51.2z" fill="#040405" /></svg>