<svg xmlns="http://www.w3.org/2000/svg" height="24" viewBox="0 -960 960 960" width="24"><path d="M440-240Zm-320 80v-112q0-34 17.5-62.5T184-378q62-31 126-46.5T440-440q20 0 40 1.5t40 4.5q-2 21 1 42t10 41q-23-5-45.5-7t-45.5-2q-56 0-111 13.5T220-306q-9 5-14.5 14t-5.5 20v32h420v80H120ZM760-40l-60-60v-186q-44-13-72-49.5T600-420q0-58 41-99t99-41q58 0 99 41t41 99q0 45-25.5 80T790-290l50 50-60 60 60 60-80 80Zm-20-360q17 0 28.5-11.5T780-440q0-17-11.5-28.5T740-480q-17 0-28.5 11.5T700-440q0 17 11.5 28.5T740-400Zm-300-80q-66 0-113-47t-47-113q0-66 47-113t113-47q66 0 113 47t47 113q0 66-47 113t-113 47Zm0-80q33 0 56.5-23.5T520-640q0-33-23.5-56.5T440-720q-33 0-56.5 23.5T360-640q0 33 23.5 56.5T440-560Zm0-80Z"/></svg>